<svg xmlns="http://www.w3.org/2000/svg" xmlns:xlink="http://www.w3.org/1999/xlink" id="Layer_1" x="0px" y="0px" width="500px" height="150px" viewBox="0 0 500 150" style="enable-background:new 0 0 500 150;" xml:space="preserve">
<style type="text/css">
	.st0{fill:#fff;}
</style>
<g>
	<path class="st0" d="M203.6,75.7l10.8-31.2c0.5-1.5,0.8-2.3,0.9-2.3h0.1c0.1,0,0.5,0.8,1,2.3l11,31.2l7.8-21.8   c0.8-2.2,1.2-4.5,1.2-6.7c0-1.3-0.6-2.3-1.8-2.8c-0.1-0.1-0.3-0.1-0.4-0.2l-0.4-0.2c-0.2-0.1-0.4-0.2-0.4-0.4   c0-0.2,0.1-0.3,0.3-0.3c0.1-0.1,0.3-0.1,0.6-0.1l2,0.1c1.1,0.1,1.9,0.1,2.4,0.1c0.5,0,1.2,0,2.2-0.1c1-0.1,1.7-0.1,2.2-0.1   c0.3,0,0.5,0,0.6,0.1c0.2,0.1,0.3,0.1,0.3,0.3c0,0.1-0.1,0.3-0.4,0.6c-0.2,0.2-0.4,0.4-0.7,0.6c-0.8,0.5-1.8,1.6-2.8,3.3   c-1.2,2-2.4,4.6-3.5,7.6l-10.5,29.6c-0.2,0.6-0.4,0.8-0.5,0.8h-0.1c-0.1,0-0.5-0.8-0.9-2.3l-10.8-31.7h-0.1l-11.3,33.1   c-0.2,0.6-0.4,0.8-0.5,0.8h-0.1c-0.2,0-0.5-0.8-1-2.3l-12.4-32.5c-1.2-3.3-2.5-5.5-3.7-6.5l-1-0.8c-0.2-0.1-0.3-0.3-0.3-0.4   c0-0.2,0.1-0.3,0.4-0.3c0.1,0,0.3,0,0.4-0.1h9.2c1.1,0,1.7,0.1,1.7,0.4c0,0.1-0.2,0.2-0.5,0.4l-0.9,0.4c-0.7,0.5-1.1,1.3-1.1,2.3   c0,1.7,0.7,4.2,2.1,7.5L203.6,75.7z"></path>
	<path class="st0" d="M251.6,74.4c0,1,0,2,0.1,3.1l0.2,3.1c0.1,1.4,0.5,2.3,1.1,2.7c0.6,0.3,1.8,0.5,3.6,0.5c1,0,1.9,0,2.6-0.1   c1-0.1,1.8-0.2,2.6-0.4c2-0.4,3.6-1.2,5-2.3c0.5-0.4,0.9-0.9,1.2-1.4l0.9-1.5c0.1-0.2,0.2-0.3,0.3-0.3c0.1,0,0.2,0.1,0.2,0.3l0,0.3   L268,85h-21.2c-0.3,0-0.5-0.1-0.5-0.2c0-0.3,0.2-0.5,0.6-0.6c0.7-0.3,1.2-1.6,1.5-3.9c0.1-0.8,0.2-1.8,0.2-2.9c0-0.4,0-0.8,0-1.3   V56.6c0-1.2-0.1-2.2-0.2-2.8c-0.2-0.9-0.6-1.6-1.1-2c-0.2-0.1-0.2-0.2-0.2-0.3c0-0.2,0.1-0.2,0.3-0.3c0.1,0,0.1,0,0.2-0.1h18.8   l1.1,5.3c0.1,0.8,0.2,1.3,0.2,1.4c0,0.2-0.1,0.2-0.2,0.2c-0.1,0-0.2-0.2-0.3-0.5c-0.9-1.9-2.1-3.2-3.6-4c-1.4-0.7-3.2-1.1-5.5-1.1   h-6.4v13.7h3.4c4.6,0,7.3-0.5,8-1.5c0.4-0.6,0.7-1.3,1-2.2c0.1-0.2,0.2-0.3,0.3-0.3c0.1,0,0.2,0.3,0.2,0.8l0,8.3   c0,0.2-0.1,0.3-0.1,0.3c-0.1,0-0.1-0.1-0.2-0.3c-0.3-1-0.7-1.7-1.2-2.2c-0.7-0.7-2-1.2-3.8-1.5c-0.7-0.1-1.4-0.1-2.2-0.2l-5.2,0   V74.4z"></path>
	<path class="st0" d="M283.8,68.9c-0.9-0.2-1.7-0.5-2.4-0.9c-0.9-0.4-1.7-0.9-2.4-1.5c-1.7-1.5-2.6-3.5-2.6-5.9c0-3.3,1-5.9,3.1-7.8   c1.9-1.8,4.4-2.7,7.3-2.7c3.5,0,6.7,1.1,9.6,3.3l-1.3,5.1c-0.1,0.2-0.1,0.3-0.2,0.3c0,0-0.1-0.1-0.1-0.3l-0.2-0.8   c-0.3-1.1-0.8-2.1-1.5-3c-0.6-0.8-1.4-1.4-2.4-1.9c-0.8-0.4-1.7-0.8-2.7-1c-0.8-0.2-1.6-0.3-2.3-0.3c-1.6,0-3,0.5-4.1,1.5   c-1.4,1.2-2.1,3-2.1,5.4c0,2.2,0.9,3.8,2.6,5c0.6,0.4,1.4,0.8,2.3,1.1l6.5,1.8c1.8,0.5,3.3,1.4,4.3,2.6c1.2,1.5,1.9,3.5,1.9,5.9   c0,2-0.4,3.7-1.2,5.3c-0.7,1.4-1.7,2.5-3,3.5c-1.1,0.8-2.4,1.5-3.8,1.9c-1.2,0.4-2.4,0.6-3.6,0.6c-1.6,0-3.5-0.4-5.5-1.1   c-1.9-0.7-3.6-1.5-5.1-2.6c-0.2-0.2-0.4-0.3-0.4-0.3c0-0.1,0-0.2,0.1-0.3l1.2-5.3c0-0.2,0.1-0.4,0.3-0.4c0.1,0,0.2,0.1,0.3,0.4   c0.2,2.7,1.4,4.8,3.7,6.4c1.8,1.3,3.8,1.9,6,1.9c2.1,0,3.8-0.6,5.3-1.7c1.9-1.4,2.8-3.4,2.8-6.1c0-2.1-0.5-3.7-1.6-4.7   c-0.5-0.5-1.1-0.9-1.8-1.2c-0.5-0.3-1.3-0.5-2.1-0.8L283.8,68.9z"></path>
	<path class="st0" d="M329.5,51.2l1.4,5.9l0.1,0.5c0,0.1,0,0.2-0.1,0.2c-0.1,0-0.2-0.1-0.3-0.2l-0.3-0.4c-0.9-1.6-2.3-2.8-4.3-3.7   c-1.7-0.7-3.4-1.1-5.3-1.1c-1.7,0-2.6,0.7-2.6,2.2v20c0,5.9,0.7,9.1,2.1,9.7c0.7,0.3,1.1,0.5,1.1,0.6c0,0.1-0.2,0.2-0.5,0.2L319,85   c-0.2,0-0.5,0-0.7,0h-4.1l-2.9,0.1c-0.3,0-0.4-0.1-0.4-0.3c0-0.1,0.1-0.2,0.3-0.3l0.8-0.2c0.8-0.2,1.4-1.4,1.8-3.5   c0.3-1.8,0.5-4.2,0.5-7.2v-19c0-1.4-0.9-2.2-2.6-2.2c-1.9,0-3.7,0.4-5.3,1.1c-2,0.8-3.4,2.1-4.3,3.7l-0.3,0.4   c-0.1,0.1-0.2,0.2-0.3,0.2c-0.1,0-0.1-0.1-0.1-0.2l1.5-6.4C302.9,51.2,329.5,51.2,329.5,51.2z"></path>
	<path class="st0" d="M354.3,84.8h-0.1l-0.8,0l-0.9,0.1c-0.3,0-0.5-0.1-0.5-0.4c0-0.2,0.2-0.4,0.6-0.5c1.1-0.5,1.8-1.5,2.2-3   c0.4-1.5,0.6-4.2,0.6-8.1V50.3c0-3.6-0.6-5.7-1.8-6.2c-0.2-0.1-0.4-0.3-0.4-0.5c0-0.3,0.3-0.4,0.8-0.4l1.2,0.1   c0.7,0.1,1.3,0.1,2,0.1l4.1-0.3c0.1,0,0.2,0,0.3,0.1c0.1,0,0.2,0.1,0.2,0.3c0,0.1,0,0.2-0.1,0.3l-0.2,0.2c-0.8,0.3-1.4,1-1.7,2.1   c-0.3,0.9-0.4,2-0.4,3.5V68c0,7,0.3,11.3,0.9,13c0.5,1.4,1.9,2.2,4.1,2.2c1.3,0,2.5-0.1,3.7-0.2c1.5-0.2,2.9-0.5,4.1-0.8   c1.5-0.5,2.8-1.1,3.9-1.8c1.3-0.9,2.3-2,3-3.2l0.3-0.7c0.1-0.2,0.3-0.3,0.4-0.3c0.1,0,0.2,0.1,0.2,0.4c0,0.2,0,0.4-0.1,0.8   l-1.7,7.4L354.3,84.8z"></path>
	<path class="st0" d="M389,68.5l-2.3,6.4c-0.4,1.2-0.8,2.3-1.1,3.3c-0.4,1.4-0.5,2.5-0.5,3.4c0,0.9,0.3,1.7,0.9,2.3l0.7,0.5   c0.2,0.1,0.3,0.3,0.3,0.4c0,0.1-0.2,0.2-0.5,0.2l-3.2-0.1l-2,0.1c-0.2,0-0.4,0-0.4,0c-0.1,0-0.2-0.1-0.2-0.2c0-0.1,0.1-0.3,0.3-0.5   c0,0,0.1-0.1,0.1-0.1l0.3-0.4c0.6-0.9,1.4-2.2,2.1-3.8l1.6-3.9l9.6-25.6c0.1-0.2,0.2-0.3,0.2-0.3h0.1c0.2,0,0.2,0.1,0.2,0.3   l10.7,30c0.6,1.6,1.3,2.8,2.3,3.8c0.4,0.4,0.5,0.6,0.5,0.6c0,0.1,0,0.1-0.1,0.2c-0.1,0.1-0.2,0.1-0.3,0.1l-4.3-0.1   c-0.2,0-0.5,0-1,0l-1.8,0.1c-0.2,0-0.3-0.1-0.3-0.2c0-0.1,0.1-0.2,0.2-0.3c0,0,0.1-0.1,0.2-0.1l0.3-0.2c0.4-0.3,0.7-1,0.7-1.9   c0-0.7-0.2-1.7-0.5-3c-0.3-1.1-0.7-2.4-1.2-4l-2.4-7H389z M393.8,55.8l-4.4,11.4h8.5L393.8,55.8z"></path>
	<path class="st0" d="M414.7,63.9c0-7.1,0-8.4-0.1-9.8c-0.1-1.5-0.5-2.3-1.9-2.6c-0.4-0.1-1.1-0.1-1.5-0.1c-0.2,0-0.4-0.1-0.4-0.3   c0-0.3,0.2-0.4,0.7-0.4c2,0,4.7,0.1,5,0.1c0.4,0,3-0.1,4.4-0.1c0.5,0,0.7,0.1,0.7,0.4c0,0.2-0.2,0.3-0.4,0.3c-0.3,0-0.6,0-1.1,0.1   c-1.2,0.2-1.6,1-1.7,2.6c-0.1,1.5-0.1,2.7-0.1,9.8v2.7h0.2c0.8-0.9,9-9.2,10.6-11c1.3-1.3,2.4-2.5,2.4-3.3c0-0.5-0.2-0.8-0.6-1   c-0.2-0.1-0.4-0.2-0.4-0.4c0-0.2,0.2-0.3,0.5-0.3c0.9,0,2.3,0.1,3.4,0.1c0.2,0,3.2-0.1,4.3-0.1c0.5,0,0.7,0.1,0.7,0.3   c0,0.2-0.1,0.3-0.5,0.3c-0.7,0-1.6,0.2-2.5,0.6c-1.9,0.8-2.8,2-4.9,3.9c-1.1,1.1-9,8.8-9.9,10c1.2,1.3,10.6,11.1,12.4,12.8   c3.8,3.5,4.6,4.3,6.7,5.2c1.2,0.5,2.5,0.6,2.8,0.6c0.3,0,0.6,0.1,0.6,0.3c0,0.2-0.2,0.4-1,0.4h-2.3c-1.3,0-2.1,0-3.1-0.1   c-2.4-0.2-3.5-1.2-5.5-2.8c-2-1.7-11.6-12.1-13.8-14.8h-0.2v4.5c0,4.4,0,8,0.2,9.9c0.1,1.3,0.4,2.3,1.8,2.5   c0.6,0.1,1.4,0.2,1.8,0.2c0.3,0,0.4,0.1,0.4,0.3c0,0.2-0.2,0.4-0.7,0.4c-2.2,0-4.8-0.1-5.2-0.1s-3,0.1-4.3,0.1   c-0.5,0-0.7-0.1-0.7-0.4c0-0.1,0.1-0.3,0.4-0.3c0.4,0,1-0.1,1.4-0.2c0.9-0.2,1.1-1.2,1.3-2.5c0.2-1.9,0.2-5.5,0.2-9.9L414.7,63.9   L414.7,63.9z"></path>
	<path class="st0" d="M452.4,74.4c0,1,0,2,0.1,3.1l0.2,3.1c0.1,1.4,0.5,2.3,1.1,2.7c0.5,0.3,1.7,0.5,3.5,0.5c1,0,1.8,0,2.5-0.1   c0.9-0.1,1.8-0.2,2.6-0.4c1.9-0.4,3.5-1.2,4.9-2.3c0.5-0.4,0.9-0.9,1.2-1.4l0.8-1.5c0.1-0.2,0.2-0.3,0.3-0.3c0.1,0,0.2,0.1,0.2,0.3   l0,0.3l-1.4,6.7h-20.7c-0.3,0-0.5-0.1-0.5-0.2c0-0.3,0.2-0.5,0.6-0.6c0.7-0.3,1.2-1.6,1.4-3.9c0.1-0.8,0.2-1.8,0.2-2.9   c0-0.4,0-0.8,0-1.3V56.6c0-1.2-0.1-2.2-0.2-2.8c-0.2-0.9-0.6-1.6-1.1-2c-0.2-0.1-0.2-0.2-0.2-0.3c0-0.2,0.1-0.2,0.2-0.3   c0.1,0,0.1,0,0.2-0.1h18.3l1,5.3c0.1,0.8,0.2,1.3,0.2,1.4c0,0.2-0.1,0.2-0.2,0.2c-0.1,0-0.2-0.2-0.3-0.5c-0.8-1.9-2-3.2-3.5-4   c-1.4-0.7-3.1-1.1-5.4-1.1h-6.2v13.7h3.3c4.5,0,7.1-0.5,7.8-1.5c0.4-0.6,0.7-1.3,0.9-2.2c0.1-0.2,0.2-0.3,0.2-0.3   c0.1,0,0.2,0.3,0.2,0.8l0,8.3c0,0.2-0.1,0.3-0.1,0.3c-0.1,0-0.1-0.1-0.2-0.3c-0.3-1-0.7-1.7-1.1-2.2c-0.7-0.7-1.9-1.2-3.7-1.5   c-0.6-0.1-1.4-0.1-2.2-0.2l-5.1,0L452.4,74.4L452.4,74.4z"></path>
	<path class="st0" d="M481.8,68.9c-0.9-0.2-1.7-0.5-2.4-0.9c-0.9-0.4-1.7-0.9-2.4-1.5c-1.7-1.5-2.5-3.5-2.5-5.9c0-3.3,1-5.9,3-7.8   c1.9-1.8,4.3-2.7,7.3-2.7c3.5,0,6.7,1.1,9.5,3.3l-1.2,5.1c-0.1,0.2-0.1,0.3-0.2,0.3c0,0-0.1-0.1-0.1-0.3l-0.2-0.8   c-0.3-1.1-0.8-2.1-1.5-3c-0.6-0.8-1.4-1.4-2.4-1.9c-0.8-0.4-1.7-0.8-2.7-1c-0.8-0.2-1.6-0.3-2.3-0.3c-1.6,0-2.9,0.5-4,1.5   c-1.4,1.2-2.1,3-2.1,5.4c0,2.2,0.8,3.8,2.5,5c0.6,0.4,1.4,0.8,2.3,1.1l6.4,1.8c1.8,0.5,3.2,1.4,4.2,2.6c1.2,1.5,1.8,3.5,1.8,5.9   c0,2-0.4,3.7-1.2,5.3c-0.7,1.4-1.7,2.5-3,3.5c-1.1,0.8-2.4,1.5-3.8,1.9c-1.2,0.4-2.4,0.6-3.6,0.6c-1.6,0-3.4-0.4-5.5-1.1   c-1.9-0.7-3.6-1.5-5.1-2.6c-0.2-0.2-0.4-0.3-0.4-0.3c0-0.1,0-0.2,0.1-0.3l1.2-5.3c0-0.2,0.1-0.4,0.3-0.4c0.1,0,0.2,0.1,0.2,0.4   c0.2,2.7,1.4,4.8,3.6,6.4c1.8,1.3,3.8,1.9,5.9,1.9c2,0,3.8-0.6,5.3-1.7c1.8-1.4,2.8-3.4,2.8-6.1c0-2.1-0.5-3.7-1.6-4.7   c-0.5-0.5-1-0.9-1.8-1.2c-0.5-0.3-1.3-0.5-2.1-0.8L481.8,68.9z"></path>
	<path class="st0" d="M265.9,113.2c-2.4,1.7-5.1,2.5-8,2.5c-2.9,0-5.4-0.9-7.5-2.6c-2.1-1.8-3.2-4.1-3.2-7c0-1.4,0.3-2.7,1-3.9   c0.6-1.1,1.4-2,2.5-2.8c2-1.5,4.1-2.3,6.3-2.3c2,0,3.8,0.2,5.4,0.7c1.5,0.4,2.6,0.9,3.4,1.6l-0.8,2.3L265,102   c-0.1,0.1-0.1,0.1-0.2,0.1c0,0-0.1-0.1-0.1-0.1l-0.1-0.4c-0.5-1.1-1.4-2-2.6-2.7c-1.2-0.7-2.6-1-4.1-1c-2.6,0-4.6,0.8-5.9,2.5   c-1.2,1.5-1.8,3.6-1.8,6.3c0,2.7,0.7,4.7,2.2,6.2c1.4,1.5,3.4,2.2,5.9,2.2c1.3,0,2.4-0.2,3.3-0.6c1.2-0.5,1.8-1.3,1.8-2.3v-2.3   c0-1.3-0.2-2.2-0.5-2.5c-0.3-0.3-1.1-0.6-2.6-0.9c-0.1,0-0.1,0-0.1-0.1c0-0.1,0.2-0.2,0.5-0.2l3.9,0.1l1.3-0.1l1.1,0   c0.4,0,0.6,0.1,0.6,0.2c0,0.1-0.1,0.1-0.3,0.2c-0.9,0.3-1.3,0.8-1.3,1.4L265.9,113.2L265.9,113.2z"></path>
	<path class="st0" d="M272.9,113.6c-0.8-0.7-1.5-1.5-2-2.5c-0.5-1-0.7-2.1-0.7-3.4c0-1.2,0.2-2.3,0.7-3.3c0.5-0.9,1.1-1.8,2-2.5   c1.7-1.4,3.6-2.1,5.9-2.1c2.3,0,4.3,0.7,5.9,2.1c0.8,0.7,1.5,1.5,2,2.5c0.5,1,0.7,2.1,0.7,3.3c0,1.2-0.2,2.3-0.7,3.4   c-0.5,1-1.1,1.8-2,2.5c-1.7,1.4-3.6,2.1-5.9,2.1S274.5,115,272.9,113.6 M283.5,113.1c1-1.2,1.4-2.9,1.4-5.1c0-2.3-0.5-4.1-1.4-5.4   c-1.1-1.4-2.6-2.1-4.7-2.1c-2.1,0-3.7,0.7-4.7,2.1c-1,1.3-1.4,3.1-1.4,5.4c0,2.2,0.5,3.9,1.4,5.1c1.1,1.4,2.6,2.1,4.7,2.1   C280.9,115.2,282.5,114.5,283.5,113.1"></path>
	<path class="st0" d="M315.1,102l0.3,1.4c0,0.1,0,0.1-0.1,0.1c-0.1,0-0.1-0.1-0.2-0.2c-0.4-0.8-1.1-1.4-2.1-1.8   c-0.8-0.3-1.9-0.5-3.1-0.5h-2.8v6h2.8c1,0,1.7-0.1,2.2-0.2c0.4-0.1,0.7-0.3,0.9-0.6c0.2-0.2,0.3-0.4,0.4-0.7c0-0.1,0.1-0.2,0.1-0.2   c0.1,0,0.1,0.1,0.1,0.3v4c0,0.1,0,0.1-0.1,0.1c-0.1,0-0.1-0.1-0.2-0.3c-0.1-0.5-0.4-0.9-0.9-1.2c-0.6-0.4-1.4-0.6-2.5-0.6h-2.9v3.7   c0,1.1,0.1,1.9,0.2,2.5c0.1,0.7,0.4,1.1,0.8,1.3c0.1,0.1,0.2,0.1,0.2,0.2c0,0.1-0.1,0.1-0.2,0.1l-1.7-0.1c-0.4,0-0.8,0-1.2,0   c-0.1,0-0.1,0-0.2,0l-0.4,0c-0.1,0-0.1,0-0.1-0.1c0,0,0.1-0.1,0.2-0.1c0.4-0.2,0.7-0.6,0.9-1.3c0.1-0.3,0.1-0.7,0.1-1.1   c0-0.3,0-0.8,0-1.4v-9.2c0-0.7-0.2-1.2-0.7-1.4c0,0-0.1,0-0.1-0.1c0,0-0.1-0.1-0.1-0.1c0-0.1,0.1-0.1,0.4-0.1h9.6L315.1,102z"></path>
	<path class="st0" d="M341.5,105.7c0.1,0.9-0.1,2-0.7,3.3c-0.5,1.2-1,2.1-1.6,2.9c1,0.8,1.9,1.5,2.5,1.8c0.8,0.5,1.7,0.8,2.5,1   c0.3,0,0.4,0.1,0.4,0.2c0,0.1,0,0.1-0.1,0.1c0,0-0.1,0-0.3,0H340c-0.2,0-0.6-0.2-1.2-0.7l-1.1-0.9c-1.8,1.5-3.8,2.2-6.1,2.2   c-1.8,0-3.3-0.3-4.6-1.1c-1.5-0.9-2.3-2.2-2.3-3.8c0-1.1,0.5-2.2,1.5-3.1c0.4-0.4,0.9-0.7,1.5-1.1c0.4-0.3,1-0.5,1.6-0.8   c-1.2-1.2-1.7-2.5-1.7-4c0-1.3,0.5-2.4,1.5-3.3c0.9-0.9,2-1.3,3.3-1.3c2.7,0,4.1,1.1,4.1,3.4c0,1.2-0.5,2.2-1.5,3.1   c-0.4,0.3-0.9,0.7-1.5,1c-0.4,0.2-1,0.5-1.6,0.8c2,2.2,4.2,4.2,6.6,6c0.5-0.7,0.7-1.5,0.7-2.3c0-1.6-0.8-2.6-2.4-2.9   c-0.1,0-0.2-0.1-0.2-0.1c0-0.1,0.1-0.1,0.3-0.1L341.5,105.7L341.5,105.7z M329,113.5c1.1,1,2.3,1.5,3.7,1.5c1.7,0,3.1-0.6,4.5-1.9   c-1.4-1.2-2.7-2.3-3.8-3.3c-1.3-1.2-2.5-2.4-3.6-3.6c-1.6,0.9-2.4,2.2-2.4,3.7C327.3,111.3,327.8,112.5,329,113.5 M331.8,97.9   c-1.7,0-2.5,0.8-2.5,2.5c0,0.8,0.2,1.5,0.7,2.4c0.4,0.7,0.9,1.4,1.5,2c2-0.5,3-1.9,3-4C334.5,98.7,333.6,97.8,331.8,97.9"></path>
	<path class="st0" d="M359.5,115.4c-0.1,0.1-0.1,0.2-0.1,0.2c-0.1,0.1-0.1,0.1-0.2,0.1h-0.1c-0.1,0-0.1,0-0.2-0.1   c0,0-0.1-0.1-0.1-0.2l-7-14.3c-0.4-0.8-0.8-1.5-1.3-2.1c-0.4-0.6-0.8-1-1.1-1.2l-0.4-0.2c-0.1-0.1-0.2-0.1-0.2-0.2   c0-0.1,0.1-0.2,0.2-0.2l2.3,0.1l2.5-0.1c0.1,0,0.1,0,0.2,0c0.1,0,0.2,0.1,0.2,0.2c0,0,0,0.1-0.1,0.2l-0.3,0.2   c-0.3,0.2-0.5,0.6-0.5,1c0,0.2,0.1,0.5,0.2,0.8c0.2,0.5,0.4,1,0.7,1.6l6,11l5.2-10.1c0.3-0.6,0.6-1.2,0.8-1.9l0.2-0.7   c0-0.2,0.1-0.3,0.1-0.4c0-0.7-0.3-1.1-0.8-1.3l-0.3-0.1c-0.1,0-0.2-0.1-0.3-0.1c-0.1-0.1-0.2-0.1-0.2-0.2c0-0.1,0.1-0.2,0.3-0.2   l2.2,0.1l2.2-0.1c0.2,0,0.3,0.1,0.3,0.2c0,0-0.1,0.1-0.2,0.2c-0.1,0.1-0.2,0.1-0.2,0.1c-0.1,0.1-0.2,0.2-0.3,0.2   c-0.6,0.6-1.2,1.4-1.7,2.4L359.5,115.4z"></path>
	<path class="st0" d="M371.1,102.6c0-0.5,0-0.9-0.1-1.2c-0.1-0.4-0.4-0.7-0.7-0.8c-0.1-0.1-0.2-0.1-0.2-0.2c0-0.1,0-0.1,0.1-0.1   c0,0,0.1,0,0.3,0l0.6,0c0.4,0,0.7,0,1,0c0.2,0,0.5,0,0.8,0c0.4,0,0.6,0,0.8,0h0.1c0.1,0,0.1,0,0.1,0c0.1,0,0.2,0.1,0.2,0.1   c0,0.1-0.1,0.2-0.2,0.2c-0.4,0.1-0.6,0.4-0.7,0.8c-0.1,0.3-0.1,0.7-0.1,1.3v9c0,0.3,0,0.5,0,0.7c0,0.5,0.1,0.9,0.1,1.2   c0.1,0.8,0.4,1.3,0.9,1.5c0.2,0.1,0.3,0.1,0.3,0.2c0,0-0.1,0.1-0.3,0.1l-1,0c-0.1,0-0.2,0-0.3,0l-2.2,0c-0.1,0-0.2,0-0.2,0l-0.4,0   c-0.2,0-0.3,0-0.3-0.1c0,0,0,0,0.1-0.1c0,0,0,0,0,0l0.1,0c0,0,0.1,0,0.1-0.1c0.4-0.3,0.8-0.9,0.9-1.8c0.1-0.3,0.1-0.8,0.1-1.2   c0-0.3,0-0.7,0-1.2L371.1,102.6L371.1,102.6z"></path>
	<path class="st0" d="M378.3,115.3L378.3,115.3l-0.4,0l-0.4,0c-0.2,0-0.2,0-0.2-0.1c0-0.1,0.1-0.1,0.3-0.2c0.5-0.2,0.9-0.5,1-1.1   c0.2-0.6,0.3-1.5,0.3-2.9v-8.2c0-1.3-0.3-2-0.8-2.2c-0.1,0-0.2-0.1-0.2-0.2c0-0.1,0.1-0.2,0.4-0.2l0.5,0c0.3,0,0.6,0,0.9,0l1.9-0.1   c0.1,0,0.1,0,0.1,0c0.1,0,0.1,0.1,0.1,0.1c0,0,0,0.1-0.1,0.1l-0.1,0.1c-0.4,0.1-0.6,0.4-0.8,0.8c-0.1,0.3-0.2,0.7-0.2,1.3v6.6   c0,2.5,0.1,4.1,0.4,4.7c0.2,0.5,0.9,0.8,1.9,0.8c0.6,0,1.2,0,1.7-0.1c0.7-0.1,1.3-0.2,1.9-0.3c0.7-0.2,1.3-0.4,1.8-0.7   c0.6-0.3,1-0.7,1.4-1.2l0.2-0.2c0.1-0.1,0.1-0.1,0.2-0.1c0.1,0,0.1,0.1,0.1,0.2c0,0.1,0,0.2,0,0.3l-0.8,2.7L378.3,115.3z"></path>
	<path class="st0" d="M289.9,115.3L289.9,115.3l-0.4,0l-0.4,0c-0.2,0-0.2,0-0.2-0.1c0-0.1,0.1-0.1,0.3-0.2c0.5-0.2,0.9-0.5,1-1.1   c0.2-0.6,0.3-1.5,0.3-2.9v-8.2c0-1.3-0.3-2-0.8-2.2c-0.1,0-0.2-0.1-0.2-0.2c0-0.1,0.1-0.2,0.4-0.2l0.5,0c0.3,0,0.6,0,0.9,0l1.9-0.1   c0.1,0,0.1,0,0.1,0c0.1,0,0.1,0.1,0.1,0.1c0,0,0,0.1-0.1,0.1l-0.1,0.1c-0.4,0.1-0.6,0.4-0.8,0.8c-0.1,0.3-0.2,0.7-0.2,1.3v6.6   c0,2.5,0.1,4.1,0.4,4.7c0.2,0.5,0.9,0.8,1.9,0.8c0.6,0,1.2,0,1.7-0.1c0.7-0.1,1.3-0.2,1.9-0.3c0.7-0.2,1.3-0.4,1.8-0.7   c0.6-0.3,1-0.7,1.4-1.2l0.2-0.2c0.1-0.1,0.1-0.1,0.2-0.1c0.1,0,0.1,0.1,0.1,0.2c0,0.1,0,0.2,0,0.3l-0.8,2.7L289.9,115.3z"></path>
	<path class="st0" d="M392.1,115.3L392.1,115.3l-0.4,0l-0.4,0c-0.2,0-0.2,0-0.2-0.1c0-0.1,0.1-0.1,0.3-0.2c0.5-0.2,0.9-0.5,1-1.1   c0.2-0.6,0.3-1.5,0.3-2.9v-8.2c0-1.3-0.3-2-0.8-2.2c-0.1,0-0.2-0.1-0.2-0.2c0-0.1,0.1-0.2,0.4-0.2l0.5,0c0.3,0,0.6,0,0.9,0l1.9-0.1   c0.1,0,0.1,0,0.1,0c0.1,0,0.1,0.1,0.1,0.1c0,0,0,0.1-0.1,0.1l-0.1,0.1c-0.4,0.1-0.6,0.4-0.8,0.8c-0.1,0.3-0.2,0.7-0.2,1.3v6.6   c0,2.5,0.1,4.1,0.4,4.7c0.2,0.5,0.9,0.8,1.9,0.8c0.6,0,1.2,0,1.7-0.1c0.7-0.1,1.3-0.2,1.9-0.3c0.7-0.2,1.3-0.4,1.8-0.7   c0.6-0.3,1-0.7,1.4-1.2l0.2-0.2c0.1-0.1,0.1-0.1,0.2-0.1c0.1,0,0.1,0.1,0.1,0.2c0,0.1,0,0.2,0,0.3l-0.8,2.7L392.1,115.3z"></path>
	<path class="st0" d="M408.3,108l-1.3,2.8c-0.3,0.5-0.5,1-0.6,1.5c-0.2,0.6-0.3,1.1-0.3,1.5c0,0.4,0.2,0.7,0.5,1l0.4,0.2   c0.1,0.1,0.2,0.1,0.2,0.2c0,0.1-0.1,0.1-0.3,0.1l-1.9,0l-1.1,0c-0.1,0-0.2,0-0.3,0c-0.1,0-0.1,0-0.1-0.1c0-0.1,0.1-0.1,0.2-0.2   c0,0,0,0,0.1-0.1l0.2-0.2c0.4-0.4,0.8-1,1.2-1.7l0.9-1.7l5.5-11.3c0-0.1,0.1-0.1,0.1-0.1h0c0.1,0,0.1,0,0.1,0.1l6.2,13.2   c0.3,0.7,0.8,1.3,1.3,1.7c0.2,0.2,0.3,0.2,0.3,0.3c0,0,0,0.1,0,0.1c0,0-0.1,0-0.2,0l-2.5,0c-0.1,0-0.3,0-0.6,0l-1,0   c-0.1,0-0.2,0-0.2-0.1c0-0.1,0-0.1,0.1-0.1c0,0,0.1,0,0.1-0.1l0.2-0.1c0.3-0.2,0.4-0.4,0.4-0.8c0-0.3-0.1-0.7-0.3-1.3   c-0.2-0.5-0.4-1.1-0.7-1.7l-1.4-3.1L408.3,108L408.3,108z M411.1,102.4l-2.5,5h4.9L411.1,102.4z"></path>
	<path class="st0" d="M424.7,108.2c-0.4-0.1-0.8-0.2-1.2-0.4c-0.4-0.2-0.8-0.4-1.1-0.7c-0.8-0.7-1.2-1.5-1.2-2.6   c0-1.4,0.5-2.6,1.5-3.4c0.9-0.8,2.1-1.2,3.5-1.2c1.7,0,3.2,0.5,4.6,1.4l-0.6,2.2c0,0.1-0.1,0.1-0.1,0.1c0,0,0,0-0.1-0.1l-0.1-0.4   c-0.1-0.5-0.4-0.9-0.7-1.3c-0.3-0.3-0.7-0.6-1.1-0.9c-0.4-0.2-0.8-0.3-1.3-0.5c-0.4-0.1-0.8-0.1-1.1-0.1c-0.8,0-1.4,0.2-1.9,0.6   c-0.7,0.5-1,1.3-1,2.4c0,1,0.4,1.7,1.2,2.2c0.3,0.2,0.7,0.3,1.1,0.5l3.1,0.8c0.9,0.2,1.6,0.6,2,1.2c0.6,0.7,0.9,1.5,0.9,2.6   c0,0.9-0.2,1.6-0.6,2.3c-0.3,0.6-0.8,1.1-1.4,1.5c-0.5,0.4-1.1,0.6-1.8,0.8c-0.6,0.2-1.2,0.2-1.7,0.2c-0.8,0-1.7-0.2-2.6-0.5   c-0.9-0.3-1.7-0.7-2.5-1.1c-0.1-0.1-0.2-0.1-0.2-0.1c0,0,0-0.1,0-0.1l0.6-2.3c0-0.1,0.1-0.2,0.1-0.2c0.1,0,0.1,0.1,0.1,0.2   c0.1,1.2,0.7,2.1,1.7,2.8c0.9,0.6,1.8,0.9,2.8,0.9c1,0,1.8-0.3,2.5-0.8c0.9-0.6,1.3-1.5,1.3-2.7c0-0.9-0.3-1.6-0.8-2.1   c-0.2-0.2-0.5-0.4-0.8-0.5c-0.3-0.1-0.6-0.2-1-0.3L424.7,108.2z"></path>
	<path class="st0" d="M22.1,122.2c6.9-5.9,13.9-9.8,21.4-11.9c4.3-1.2,8.8-1.7,13.7-1.7c2.3,0,4.7,0.1,7.2,0.4   c6.8,0.7,13.4,2.2,20.4,3.9c6.5,1.5,13.2,3,20,3.9C61.8,106.1,27.6,61.1,5,141.9C10.6,133.8,16.3,127.3,22.1,122.2"></path>
	<path class="st0" d="M18.8,133.9C73,84,111.5,166.6,149.2,89.3C120.8,187.6,56.7,117.6,18.8,133.9"></path>
	<path class="st0" d="M60.6,29c-0.3-0.1-0.6,0.7-0.9,0.9c-0.5,0.4-1.2,1.2-1.8,1.4c-0.5,0.2-2-0.1-2.4,0.3c-0.2,0.2-0.2,0.9-0.4,1.1   c-0.1,0.1-0.6,0.1-0.7,0.3c-0.4,0.6-0.7,2.2-0.7,2.9c0,0.9-0.1,2.4,0,3.3c0.1,0.3,0.1,1.5,0.4,1.7c0.4,0.2,1.9-0.3,2.3-0.4   c0.5,0,1.6,0.1,2,0.1c0.6,0,1.7,0.4,2.3,0.1c0.3-0.1,0.6-0.8,0.9-1c0.6-0.4,2.7,0.3,3-0.3c0.2-0.5-1.1-2-1.3-2.6   c-0.5-1.1-1.4-3.2-1.7-4.4c-0.1-0.5-0.7-1.4-0.8-1.9C60.5,30.1,61,29.1,60.6,29"></path>
	<path class="st0" d="M66.8,29.2c0,0-0.5,1.4-0.7,1.8c-0.1,0.4-0.8,1-0.7,1.4c0.3,0.9,2,2.1,2.7,2.8c0.9,0.8,2.5,2.1,3.4,2.8   c0.8,0.6,2.7,2,3.7,2c0.6,0,1.2-0.5,1.6-0.8c0.4-0.3,1.5-0.5,2-0.8c0.4-0.3,1.4-1,1.6-1.5c0.1-0.4-0.4-1.1-0.5-1.5   c-0.1-0.3-0.1-0.9-0.1-1.3c-0.1-0.7,0.2-2.9,0.2-2.9L66.8,29.2z"></path>
	<path class="st0" d="M83.4,5L18,43l0.1,58.4c3-22.5,23.3-23,40.5-19.1c0.2-2.3,0.5-5.1,1-6.6c0.3-1,1.7-2.6,2-3.6   c0.1-0.5,0.1-1.4,0-1.9c-0.1-0.7-0.8-2.1-0.7-2.9c0-0.9,0.7-3.6,1-4.5c0.3-1,0.7-2.4,0.9-3.4c0.2-1.1,0.4-3.5,0.4-4.6   c0-1,0.2-3.9,0.2-3.9s-2.1,0.1-2.7,0c-1-0.1-2.9-0.4-3.9-0.5c-1.1-0.2-3.4-0.4-4.5-0.8c-0.8-0.2-2.3-1.1-3.1-1.4   c-0.7-0.3-1.6-0.2-2-0.8c-0.5-0.9-0.2-3.2,0-4.2c0.2-1.2,0.3-3.6,0.6-4.8c0.3-1.4,1.5-4.1,2-5.5c0.2-0.5,1.2-1.5,1.1-2   c0-0.2-0.8-0.4-0.8-0.6c0-0.5,1.6-1.2,2-1.6c0.5-0.5,1-1.2,1.5-1.7c0.2-0.2,1-0.7,0.9-1c-0.1-0.3-1.4-0.1-1.4-0.1l0.2-1.4   c0,0,1.1,0,1.5-0.1c0.3-0.1,0.7-0.3,1-0.4c1.2-0.2,3.8-0.5,5-0.1c0.2,0.1,0.6,0.4,0.7,0.5c0.3,0.2,1,0.6,1.4,0.6   c0.3,0,0.9-0.2,1.1-0.1c0.3,0.1,0.4,0.9,0.6,1c0.2,0.1,0.7-0.3,1-0.3c0.2,0,0.7,0.3,0.9,0.5c0.2,0.3,0.3,1.6,0.3,1.6l13.2,2.1   c0,0,0.3-1.3,0.4-1.8c0.2-0.7,0.5-2.2,0.9-2.9c0.4-0.8,1.4-2.5,2.2-3.1c1.3-0.8,2,0.2,2.6,0.2c1,0,2.9-0.4,3.8,0c1,0.4,2.5,2.1,3,3   c0.5,0.9,0.5,2.8,0.3,3.8c-0.1,0.4-0.2,1.2-0.4,1.6c-0.2,0.4-0.7,1.6-0.7,1.6l35,6.9c0,0,2.5,1.6,3,2.4c0.6,0.9,1.5,3.3,1.2,4.4   c-0.1,0.5-1,1.5-1.5,1.6c-0.7,0.2-2.2-0.4-2.7-0.9c-0.6-0.6-1.1-2.2-1.2-3c-0.2-0.8-0.1-3.3-0.1-3.3l-34-6.6c0,0-1.1,2.5-1.6,3.1   c-0.4,0.5-1.3,0.9-1.6,1.5c-0.2,0.4-0.3,1,0,1.3c0.3,0.3,0.4,0.5,0.8,0.6c0.9,0.2,3.7,1.3,4.4,2c0.8,0.9,0.7,2.7,0.9,3.9   c0.2,1.4-0.1,4.2-0.5,5.5c-0.5,1.6-2.3,4.5-3,6c-0.5,1.1-1.2,3.5-1.6,4.6c-0.4,1-1.3,2.9-1.7,3.8c-0.6,1.1-2.1,3.2-2.7,4.4   c-0.4,0.8-0.8,2.7-0.9,3.6c0,1,0.5,2.4,0.7,3.3c0.4,1.8,0.9,5.4,1.1,7.2c0.1,0.9,0.3,2.6,0.4,3.8l15.9-11.6V39.8l25,14.5v60.2   l14.4-18.9c4.7-6.2,7.3-13.8,7.3-21.6V43L83.4,5z"></path>
</g>
</svg>